<svg xmlns="http://www.w3.org/2000/svg" shape-rendering="geometricPrecision" text-rendering="geometricPrecision" image-rendering="optimizeQuality" fill-rule="evenodd" clip-rule="evenodd" viewBox="0 0 2385.69 432.03">
  <!--path fill="#1F1A17" d="M529.45 117.84H556v91.67c0 20.94 1.22 45.36 35.56 45.36 34.33 0 35.71-24.42 35.71-45.36v-91.67h26.4V218.4c0 40.29-24.72 60.27-62.11 60.27-37.24 0-62.11-19.98-62.11-60.27V117.84zM681.75 161.3h22.9v16.65l.3.48c7.33-12.53 19.84-20.3 34.19-20.3 23.8 0 38.76 13.32 38.76 38.85v78.03h-24.11V203.5c-.46-17.77-7.18-25.54-21.37-25.54-16.18 0-26.55 13.33-26.55 29.98V275h-24.12V161.3zM804.91 161.3h24.12V275H804.9V161.3zm0-43.46h24.12v23.8H804.9v-23.8zM845.36 161.3h26.25l27.77 87.23h.46l26.71-87.23h25.03l-39.23 113.71h-27.16zM1014 177.95h.76c16.33 0 26.71 14.43 27.47 30.3H1014v16.33h52.34c.31-1.43.31-2.85.46-4.28v-7.93c-1.68-29.18-21.67-54.24-52.04-54.24h-.76v19.82zm0 100.08V258.2h1.37c13.89 0 22.44-6.34 26.71-18.87h22.9c-5.35 24.9-25.65 38.7-49.6 38.7H1014zm-28.09-69.79c.62-16.8 11.76-29.97 28.09-30.3v-19.81c-32.2.47-52.35 28.07-52.35 59.95 0 34.73 18.93 59.31 52.35 59.95V258.2c-19.23-.63-28.09-16.18-28.09-33.62H1014v-16.34h-28.09zM1085.72 161.3h22.59v22.04h.45c2.75-12.2 17.25-25.21 32.05-25.21 5.5 0 7.03.47 9.16.63v24.27c-3.51-.48-7.02-1.11-10.38-1.11-16.63 0-29.76 13.95-29.76 38.85v54.24h-24.11V161.3zM1179.42 238.38c1.22 14.59 11.9 19.82 24.57 19.82 9.16 0 25.03-1.9 24.42-14.9-.6-13.33-18.16-14.76-35.86-19.04-17.55-3.96-34.95-10.3-34.95-33.46 0-24.9 25.8-32.67 45.63-32.67 22.44 0 42.73 9.67 45.78 35.05h-25.33c-1.98-11.9-11.6-15.23-22.13-15.23-7.02 0-19.84 1.74-19.84 11.74 0 12.37 17.7 14.11 35.4 18.24 17.71 4.28 35.41 10.62 35.41 33.15 0 27.11-26.25 36.95-48.99 36.95-27.31 0-47.92-12.69-48.37-39.65h24.26zM1272.52 161.3h24.11V275h-24.11V161.3zm0-43.46h24.11v23.8h-24.11v-23.8zM1312.81 161.3h18.16v-34.26h24.27v34.26h21.82v18.72h-21.82v60.58c0 10.3.76 15.7 11.6 15.7 3.35 0 6.7 0 10.22-.95v19.35c-5.34.48-10.53 1.42-15.72 1.42-25.18 0-29.91-10.14-30.37-29.18v-66.92h-18.16V161.3zM1462.83 236.63c0 14.75-14.2 20.78-24.73 21.57v18.88c9.92-1.75 19.84-5.87 26.71-12.85 1.83 10.3 8.86 13.8 18.62 13.8 3.97 0 11.6-1.59 15.26-2.86v-17.44c-2.59.47-4.42.47-5.95.47-4.42 0-5.8-2.38-5.8-8.56v-58.36c0-24.11-22.43-33.15-43.8-33.15-1.68 0-3.36.15-5.04.15v19.83l3.51-.16c9.77 0 22.74 2.54 22.74 15.39 0 12.84-11.75 13.16-26.25 15.06v15.54c9.16-1.26 18.47-1.74 24.73-6.02v18.71zm-15.11-117.2v23.79h24.27v-23.8h-24.27zm-9.62 138.77h-2.44c-8.4 0-22.28-3.33-22.28-14.43 0-13.32 9.47-17.29 19.84-19.03 1.53-.32 3.2-.48 4.88-.8V208.4c-2.13.32-4.42.64-6.71 1.11-20.3 2.38-42.12 6.82-42.12 35.21 0 22.37 17.85 33.3 37.54 33.3 3.66 0 7.48-.31 11.3-.94V258.2zm0-99.92v19.83c-11.6.95-19.68 6.66-20.6 17.92h-24.26c1.68-27.28 22.58-36.64 44.86-37.75zm-2.59-15.06v-23.8h-24.11v23.8h24.11zM1502.97 161.3h18.16v-34.26h24.12v34.26h21.82v18.72h-21.82v60.58c0 10.3.91 15.7 11.75 15.7 3.36 0 6.71 0 10.07-.95v19.35c-5.2.48-10.38 1.42-15.57 1.42-25.33 0-29.9-10.14-30.37-29.18v-66.92h-18.16V161.3zM1711.13 203.49h10.68c16.18 0 25.49 8.88 25.49 24.1 0 15.86-9.3 24.9-25.49 24.9h-10.68v22.52h6.87c39.22 0 55.86-19.18 55.86-43.93 0-21.1-10.08-36.16-28.54-40.28v-.48c13.88-6.18 21.67-17.6 21.67-33.46 0-26.17-17.86-39.02-44.87-39.02h-10.99v22.53h7.17c14.35 0 22.13 5.7 22.13 21.56 0 14.12-9.46 21.73-22.13 21.73h-7.17v19.83zm-36.17 0h36.17v-19.83h-36.17v-43.3h36.17v-22.52h-62.57v157.17h62.57V252.5h-36.17v-49zM1795.22 161.3h22.59v22.04h.46c2.74-12.2 17.24-25.21 32.04-25.21 5.5 0 7.03.47 9.16.63v24.27c-3.51-.48-7.02-1.11-10.38-1.11-16.63 0-29.76 13.95-29.76 38.85v54.24h-24.11V161.3zM1913.96 177.95h.6c16.34 0 26.72 14.43 27.63 30.3h-28.23v16.33h52.34c.16-1.43.31-2.85.31-4.28v-7.93c-1.68-29.18-21.67-54.24-52.04-54.24h-.61v19.82zm0 100.08V258.2h1.22c14.04 0 22.43-6.34 26.7-18.87h22.9c-5.34 24.9-25.64 38.7-49.6 38.7h-1.22zm-28.24-69.79c.61-16.8 11.75-29.97 28.24-30.3v-19.81c-32.36.47-52.35 28.07-52.35 59.95 0 34.73 18.77 59.31 52.35 59.95V258.2c-19.23-.63-28.24-16.18-28.24-33.62h28.24v-16.34h-28.24zM1985.53 161.3h22.9v15.86h.6c7.33-11.26 16.33-19.03 33.73-19.03 13.43 0 25.95 6.02 30.83 19.03 7.93-11.74 18.3-19.03 34.34-19.03 23.04 0 36.62 10.62 36.62 38.38v78.5h-24.11v-66.45c0-18.08-1.07-30.61-20-30.61-16.32 0-23.34 11.26-23.34 30.45v66.61h-24.12v-72.95c0-15.7-4.73-24.11-19.22-24.11-12.52 0-23.96 10.63-23.96 29.5V275h-24.27V161.3zM2217.81 177.95h.76c16.33 0 26.71 14.43 27.47 30.3h-28.23v16.33h52.5c.15-1.43.15-2.85.3-4.28v-7.93c-1.68-29.18-21.67-54.24-52.04-54.24h-.76v19.82zm0 100.08V258.2h1.37c13.89 0 22.44-6.34 26.71-18.87h22.9c-5.35 24.9-25.65 38.7-49.6 38.7h-1.38zm-28.09-69.79c.62-16.8 11.76-29.97 28.09-30.3v-19.81c-32.2.47-52.35 28.07-52.35 59.95 0 34.73 18.93 59.31 52.35 59.95V258.2c-19.23-.63-28.09-16.18-28.09-33.62h28.09v-16.34h-28.09zM2289.54 161.3h22.89v16.65l.46.48c7.17-12.53 19.68-20.3 34.03-20.3 23.81 0 38.76 13.32 38.76 38.85v78.03h-24.11V203.5c-.46-17.77-7.17-25.54-21.36-25.54-16.18 0-26.56 13.33-26.56 29.98V275h-24.11V161.3z"/-->
  <path fill="#C4263A" d="M149.74 197.62c-.15 43.3 34.34 77.23 75.54 77.23 41.67 0 75.55-33.93 75.55-77.23V0h-37.7v197.62c0 21.57-16.93 38.06-37.85 38.06-20.14 0-37.84-17.13-37.84-38.06V78.82h-37.7v118.8zM36.35 39.33V0H0v39.33zM74.04 78.67V39.33H36.35v39.34zM111.89 39.33V0H74.04v39.33zM187.44 39.33h-37.7V0h37.7zM149.74 78.67h-37.85V39.33h37.85z"/>
  <path fill="#C4263A" d="M452.07.16v197.46c0 129.57-101.64 234.4-226.63 234.4-116.1 0-212.5-90.68-225.44-207.6V78.67h36.35v118.95c0 108 85 195.08 189.09 195.08 104.08 0 188.78-87.08 188.78-195.08V0l37.85.16z"/>
  <path fill="#C4263A" d="M338.68 0v197.62c0 64.87-50.98 116.57-113.4 116.57-62.57 0-113.39-51.7-113.39-116.57V78.5H74.04v119.1c0 86.44 67.92 155.75 151.24 155.75 83.33 0 151.1-69.3 151.1-155.74V.16L338.68 0z"/>
</svg>
