<?xml version="1.0" encoding="UTF-8" standalone="no"?>
<svg
   xmlns:dc="http://purl.org/dc/elements/1.1/"
   xmlns:cc="http://creativecommons.org/ns#"
   xmlns:rdf="http://www.w3.org/1999/02/22-rdf-syntax-ns#"
   xmlns:svg="http://www.w3.org/2000/svg"
   xmlns="http://www.w3.org/2000/svg"
   xmlns:sodipodi="http://sodipodi.sourceforge.net/DTD/sodipodi-0.dtd"
   xmlns:inkscape="http://www.inkscape.org/namespaces/inkscape"
   height="833.5"
   viewBox="0 0 422.43909 833.49998"
   width="422.43909"
   id="svg2"
   version="1.1"
   inkscape:version="0.91 r13725"
   sodipodi:docname="FTA.svg">
  <metadata
     id="metadata141">
    <rdf:RDF>
      <cc:Work
         rdf:about="">
        <dc:format>image/svg+xml</dc:format>
        <dc:type
           rdf:resource="http://purl.org/dc/dcmitype/StillImage" />
        <dc:title />
      </cc:Work>
    </rdf:RDF>
  </metadata>
  <sodipodi:namedview
     pagecolor="#ffffff"
     bordercolor="#666666"
     borderopacity="1"
     objecttolerance="10"
     gridtolerance="10"
     guidetolerance="10"
     inkscape:pageopacity="0"
     inkscape:pageshadow="2"
     inkscape:window-width="1280"
     inkscape:window-height="771"
     id="namedview139"
     showgrid="false"
     inkscape:zoom="1.3595766"
     inkscape:cx="221.96465"
     inkscape:cy="80.866255"
     inkscape:window-x="0"
     inkscape:window-y="0"
     inkscape:window-maximized="1"
     inkscape:current-layer="page1"
     fit-margin-top="0"
     fit-margin-left="0"
     fit-margin-right="0"
     fit-margin-bottom="0" />
  <style
     type="text/css"
     id="style4"><![CDATA[
.st2 {fill:#000000;font-family:Arial;font-size:13.5pt}
.st1 {fill:#000000;font-family:Arial;font-size:18pt}
]]></style>
  <defs
     id="defs6" />
  <g
     id="page1"
     transform="translate(-208.98,-38)">
    <path
       style="fill:#ffffff;stroke:#000000"
       inkscape:connector-curvature="0"
       id="path106-6"
       d="m 541.38632,661.87591 m 56,0 c 0,15.5 -12.5,28 -28,28 -15.5,0 -28,-12.5 -28,-28 0,-15.5 12.5,-28 28,-28 15.5,0 28,12.5 28,28 z m 0,0 0,0 z" />
    <g
       id="shape1"
       transform="translate(260.98,38.5)">
      <path
         d="M 86,56 86,0 0,0 0,56 86,56 Z"
         id="path12"
         inkscape:connector-curvature="0"
         style="fill:#ffffff;stroke:#000000" />
      <text
         class="st1"
         id="text14"
         style="font-size:22.5px;font-family:Arial;fill:#000000">
        <tspan
           x="28"
           y="36"
           id="tspan16">E1</tspan>
      </text>
    </g>
    <path
       id="shape2"
       transform="translate(281.98,110)"
       d="m 0,56 44,0 0,-28 0,-6 C 44,9.8 34.2,0 22,0 9.8,0 0,9.8 0,22 l 0,34 z"
       inkscape:connector-curvature="0"
       style="fill:#ffffff;stroke:#000000" />
    <path
       id="shape3"
       transform="translate(303.98,110)"
       d="M 0,0 0,-15"
       inkscape:connector-curvature="0"
       style="fill:none;stroke:#000000" />
    <g
       id="shape4"
       transform="translate(209.48,195)">
      <path
         d="m 0,28 m 56,0 C 56,43.5 43.5,56 28,56 12.5,56 0,43.5 0,28 0,12.5 12.5,0 28,0 43.5,0 56,12.5 56,28 Z m 0,0 0,0 z"
         id="path21"
         inkscape:connector-curvature="0"
         style="fill:#ffffff;stroke:#000000" />
      <text
         class="st1"
         id="text23"
         style="font-size:22.5px;font-family:Arial;fill:#000000">
        <tspan
           x="13"
           y="36"
           id="tspan25">E2</tspan>
      </text>
    </g>
    <g
       id="shape5"
       transform="translate(318.98,195)">
      <path
         d="M 86,56 86,0 0,0 0,56 86,56 Z"
         id="path28"
         inkscape:connector-curvature="0"
         style="fill:#ffffff;stroke:#000000" />
      <text
         class="st1"
         id="text30"
         style="font-size:22.5px;font-family:Arial;fill:#000000">
        <tspan
           x="28"
           y="36"
           id="tspan32">E3</tspan>
      </text>
    </g>
    <path
       id="shape6"
       transform="translate(339.98,265)"
       d="M 22,0 C 22,0 6.6,8.4 0,28 c 0,0 0,28 0,28 0,0 8.8,-7.3 22,-7.3 13.2,0 22,7.3 22,7.3 0,0 0,-28 0,-28 C 37.4,8.4 22,0 22,0 Z"
       inkscape:connector-curvature="0"
       style="fill:#ffffff;stroke:#000000" />
    <g
       id="shape7"
       transform="translate(373.48,341)">
      <path
         d="M 86,56 86,0 0,0 0,56 86,56 Z"
         id="path36"
         inkscape:connector-curvature="0"
         style="fill:#ffffff;stroke:#000000" />
      <text
         class="st1"
         id="text38"
         style="font-size:22.5px;font-family:Arial;fill:#000000">
        <tspan
           x="28"
           y="36"
           id="tspan40">E5</tspan>
      </text>
    </g>
    <path
       id="shape8"
       transform="translate(290.78,166)"
       d="m 0,0 0,13 -53.3,0 0,16"
       inkscape:connector-curvature="0"
       style="fill:none;stroke:#000000" />
    <path
       id="shape9"
       transform="translate(317.18,166)"
       d="m 0,0 0,13 44.8,0 0,16"
       inkscape:connector-curvature="0"
       style="fill:none;stroke:#000000" />
    <path
       id="shape10"
       transform="translate(361.98,251)"
       d="M 0,0 0,14"
       inkscape:connector-curvature="0"
       style="fill:none;stroke:#000000" />
    <path
       id="shape11"
       transform="translate(348.78,315.96)"
       d="m 0,0 0,17 -45.8,0 0,8"
       inkscape:connector-curvature="0"
       style="fill:none;stroke:#000000" />
    <path
       id="shape12"
       transform="translate(375.18,315.96)"
       d="m 0,0 0,17 41.3,0 0,8"
       inkscape:connector-curvature="0"
       style="fill:none;stroke:#000000" />
    <g
       id="shape13"
       transform="translate(275,341)">
      <path
         d="m 0,28 m 56,0 C 56,43.5 43.5,56 28,56 12.5,56 0,43.5 0,28 0,12.5 12.5,0 28,0 43.5,0 56,12.5 56,28 Z m 0,0 0,0 z"
         id="path48"
         inkscape:connector-curvature="0"
         style="fill:#ffffff;stroke:#000000" />
      <text
         class="st1"
         id="text50"
         style="font-size:22.5px;font-family:Arial;fill:#000000">
        <tspan
           x="13"
           y="36"
           id="tspan52">E4</tspan>
      </text>
    </g>
    <path
       id="shape14"
       transform="translate(394.48,416)"
       d="M 22,0 C 22,0 6.6,8.4 0,28 c 0,0 0,28 0,28 0,0 8.8,-7.3 22,-7.3 13.2,0 22,7.3 22,7.3 0,0 0,-28 0,-28 C 37.4,8.4 22,0 22,0 Z"
       inkscape:connector-curvature="0"
       style="fill:#ffffff;stroke:#000000" />
    <g
       id="shape15"
       transform="translate(361.48,491)">
      <path
         d="m 0,28 m 56,0 C 56,43.5 43.5,56 28,56 12.5,56 0,43.5 0,28 0,12.5 12.5,0 28,0 43.5,0 56,12.5 56,28 Z m 0,0 0,0 z"
         id="path56"
         inkscape:connector-curvature="0"
         style="fill:#ffffff;stroke:#000000" />
      <text
         class="st1"
         id="text58"
         style="font-size:22.5px;font-family:Arial;fill:#000000">
        <tspan
           x="13"
           y="36"
           id="tspan60">E6</tspan>
      </text>
    </g>
    <g
       id="shape16"
       transform="translate(429.74,491)">
      <path
         d="M 86,56 86,0 0,0 0,56 86,56 Z"
         id="path63"
         inkscape:connector-curvature="0"
         style="fill:#ffffff;stroke:#000000" />
      <text
         class="st1"
         id="text65"
         style="font-size:22.5px;font-family:Arial;fill:#000000">
        <tspan
           x="28"
           y="36"
           id="tspan67">E7</tspan>
      </text>
    </g>
    <path
       id="shape17"
       transform="translate(450.74,558)"
       d="M 22,0 C 22,0 6.6,8.4 0,28 c 0,0 0,28 0,28 0,0 8.8,-7.3 22,-7.3 13.2,0 22,7.3 22,7.3 0,0 0,-28 0,-28 C 37.4,8.4 22,0 22,0 Z"
       inkscape:connector-curvature="0"
       style="fill:#ffffff;stroke:#000000" />
    <g
       id="shape18"
       transform="translate(331.48,634)">
      <path
         d="M 86,56 86,0 0,0 0,56 86,56 Z"
         id="path71"
         inkscape:connector-curvature="0"
         style="fill:#ffffff;stroke:#000000" />
      <text
         class="st1"
         id="text73"
         style="font-size:22.5px;font-family:Arial;fill:#000000">
        <tspan
           x="28"
           y="36"
           id="tspan75">E8</tspan>
      </text>
    </g>
    <g
       id="shape19"
       transform="translate(429.74,634)">
      <path
         d="M 86,56 86,0 0,0 0,56 86,56 Z"
         id="path78"
         inkscape:connector-curvature="0"
         style="fill:#ffffff;stroke:#000000" />
      <text
         class="st1"
         id="text80"
         style="font-size:22.5px;font-family:Arial;fill:#000000">
        <tspan
           x="28"
           y="36"
           id="tspan82">E9</tspan>
      </text>
    </g>
    <text
       style="font-size:22.5px;font-family:Arial;fill:#000000"
       id="text87"
       class="st1"
       x="528"
       y="634">
      <tspan
         id="tspan89"
         y="670"
         x="550">E10</tspan>
    </text>
    <g
       id="shape21"
       transform="translate(275,815)">
      <path
         d="m 0,28 m 56,0 C 56,43.5 43.5,56 28,56 12.5,56 0,43.5 0,28 0,12.5 12.5,0 28,0 43.5,0 56,12.5 56,28 Z m 0,0 0,0 z"
         id="path92"
         inkscape:connector-curvature="0"
         style="fill:#ffffff;stroke:#000000" />
      <text
         class="st2"
         id="text94"
         style="font-size:16.875px;font-family:Arial;fill:#000000">
        <tspan
           x="13"
           y="33.5"
           id="tspan96">E11</tspan>
      </text>
    </g>
    <g
       id="shape22"
       transform="translate(346.48,815)">
      <path
         d="m 0,28 m 56,0 C 56,43.5 43.5,56 28,56 12.5,56 0,43.5 0,28 0,12.5 12.5,0 28,0 43.5,0 56,12.5 56,28 Z m 0,0 0,0 z"
         id="path99"
         inkscape:connector-curvature="0"
         style="fill:#ffffff;stroke:#000000" />
      <text
         class="st2"
         id="text101"
         style="font-size:16.875px;font-family:Arial;fill:#000000">
        <tspan
           x="12"
           y="33.5"
           id="tspan103">E12</tspan>
      </text>
    </g>
    <g
       id="shape23"
       transform="translate(417.96,815)">
      <path
         d="m 0,28 m 56,0 C 56,43.5 43.5,56 28,56 12.5,56 0,43.5 0,28 0,12.5 12.5,0 28,0 43.5,0 56,12.5 56,28 Z m 0,0 0,0 z"
         id="path106"
         inkscape:connector-curvature="0"
         style="fill:#ffffff;stroke:#000000" />
      <text
         class="st2"
         id="text108"
         style="font-size:16.875px;font-family:Arial;fill:#000000">
        <tspan
           x="12"
           y="33.5"
           id="tspan110">E13</tspan>
      </text>
    </g>
    <path
       id="shape25"
       d="m 345.4915,710.58242 -0.15233,-8.74825 m 0,0 28.74424,-0.58642"
       inkscape:connector-curvature="0"
       style="fill:none;stroke:#000000"
       sodipodi:nodetypes="cccc" />
    <path
       id="shape26"
       transform="translate(374.48,713)"
       d="M 0,-10.414582 0,-23"
       inkscape:connector-curvature="0"
       style="fill:none;stroke:#000000"
       sodipodi:nodetypes="cc" />
    <path
       id="shape27"
       transform="translate(445.96,713)"
       d="M 25.828164,-1.6663332 25.133667,-22.583417"
       inkscape:connector-curvature="0"
       style="fill:none;stroke:#000000"
       sodipodi:nodetypes="cc" />
    <path
       id="shape29"
       transform="translate(374.48,634)"
       d="m 0,0 0,-12 85.1,0 0,-13"
       inkscape:connector-curvature="0"
       style="fill:none;stroke:#000000" />
    <path
       id="shape30"
       transform="translate(472.74,634)"
       d="M 0,0 0,-27.3"
       inkscape:connector-curvature="0"
       style="fill:none;stroke:#000000" />
    <path
       id="shape31"
       transform="translate(571,634)"
       d="m 0,0 0,-12 -85.1,0 0,-13"
       inkscape:connector-curvature="0"
       style="fill:none;stroke:#000000" />
    <path
       id="shape32"
       transform="translate(472.74,558)"
       d="M 0,0 0,-11"
       inkscape:connector-curvature="0"
       style="fill:none;stroke:#000000" />
    <path
       id="shape33"
       transform="translate(472.74,491)"
       d="m 0,0 0,-11 -43.1,0 0,-13"
       inkscape:connector-curvature="0"
       style="fill:none;stroke:#000000" />
    <path
       id="shape34"
       transform="translate(389.48,491)"
       d="m 0,0 0,-11 13.8,0 0,-13"
       inkscape:connector-curvature="0"
       style="fill:none;stroke:#000000" />
    <path
       id="shape35"
       transform="translate(416.48,416)"
       d="M 0,0 0,-19"
       inkscape:connector-curvature="0"
       style="fill:none;stroke:#000000" />
    <g
       id="shape36"
       transform="translate(481,814.5)">
      <path
         d="M 38,49 76,24.5 38,0 0,24.5 38,49 Z"
         id="path131"
         inkscape:connector-curvature="0"
         style="fill:#ffffff;stroke:#000000" />
      <text
         class="st2"
         id="text133"
         style="font-size:16.875px;font-family:Arial;fill:#000000">
        <tspan
           x="22"
           y="30"
           id="tspan135">E14</tspan>
      </text>
    </g>
    <path
       id="shape37"
       d="m 484.40434,762.48549 0.83316,19.4975 34.21909,0.41658 -0.41659,32.4975"
       inkscape:connector-curvature="0"
       style="fill:none;stroke:#000000"
       sodipodi:nodetypes="cccc" />
    <path
       inkscape:connector-curvature="0"
       style="fill:#ffffff;stroke:#000000"
       id="shape17-3"
       d="m 344.92996,710.76457 c 0,0 -15.4,8.4 -22,28 0,0 0,28 0,28 0,0 8.8,-7.3 22,-7.3 13.2,0 22,7.3 22,7.3 0,0 0,-28 0,-28 -6.6,-19.6 -22,-28 -22,-28 z" />
    <path
       inkscape:connector-curvature="0"
       style="fill:#ffffff;stroke:#000000"
       id="shape17-6"
       d="m 472.57029,710.76457 c 0,0 -15.4,8.4 -22,28 0,0 0,28 0,28 0,0 8.8,-7.3 22,-7.3 13.2,0 22,7.3 22,7.3 0,0 0,-28 0,-28 -6.6,-19.6 -22,-28 -22,-28 z" />
    <path
       style="fill:none;fill-rule:evenodd;stroke:#000000;stroke-width:1px;stroke-linecap:butt;stroke-linejoin:miter;stroke-opacity:1"
       d="m 334.0988,762.34067 -0.41658,19.16283 -30.41058,0 0,32.91008"
       id="path4239"
       inkscape:connector-curvature="0" />
    <path
       style="fill:none;fill-rule:evenodd;stroke:#000000;stroke-width:1px;stroke-linecap:butt;stroke-linejoin:miter;stroke-opacity:1"
       d="m 354.51138,761.92409 0,19.57941 19.57941,0 0,33.32667"
       id="path4241"
       inkscape:connector-curvature="0" />
    <path
       inkscape:connector-curvature="0"
       style="fill:none;stroke:#000000"
       id="shape27-7"
       d="m 445.2572,814.5 -0.83316,-36.82816 19.71808,0 0,-16"
       sodipodi:nodetypes="cccc" />
  </g>
</svg>
